<svg width="18" height="18" fill="none" xmlns="http://www.w3.org/2000/svg"><path fill-rule="evenodd" clip-rule="evenodd" d="M9 0a9 9 0 110 18A9 9 0 019 0zm.536 4.428a.335.335 0 00-.628.017l-.963 2.952a.328.328 0 01-.183.055H4.809a.324.324 0 00-.176.586L7.02 9.782l.017.013a.324.324 0 01.088.116l-.003.01-1.031 3.157-.005.016a.324.324 0 00.22.392c.105.032.22.012.307-.054l2.407-1.844.016-.011a.339.339 0 01.394.011l2.408 1.844.015.01c.143.099.342.07.451-.065a.319.319 0 00.055-.3L9.542 4.446l-.006-.017z" fill="#fff"/></svg>