<svg width="128" height="128" viewBox="0 0 128 128" fill="none" xmlns="http://www.w3.org/2000/svg">
<rect width="128" height="128" rx="64" fill="#7EB139"/>
<path d="M84.0667 86.1664L67.6012 36.1917C67.205 34.9874 65.8767 34.3224 64.6343 34.7065C63.9055 34.9317 63.3345 35.4853 63.1021 36.1917L57.1026 49.6444C56.7904 50.5934 55.8807 51.2378 54.853 51.2378H33.65C32.346 51.2378 31.2889 52.2625 31.2889 53.5266C31.2889 54.2549 31.6465 54.9397 32.2519 55.371L49.4933 67.6515C50.31 68.2333 50.6526 69.2554 50.3447 70.1914L43.5372 90.8824C43.141 92.0867 44.6996 90.0024 45.942 90.3865C46.6868 90.6168 47.501 90.4747 48.1162 90.0071L64.3449 51.9381C65.2003 51.288 66.4031 51.288 67.2585 51.9381L80.3604 88.6631C81.3866 89.443 82.8708 89.2688 83.6753 88.274C84.1577 87.6776 84.3042 86.8884 84.0667 86.1664Z" fill="white"/>
<path d="M88.0642 90.8824L67.7102 30.0385C67.3073 28.8342 65.9565 28.1692 64.6931 28.5533C63.9519 28.7785 63.3712 29.3321 63.1349 30.0385L50.2277 68.6251L42.7809 90.8824C42.3779 92.0867 43.0755 93.3743 44.3389 93.7584C45.0964 93.9886 45.9243 93.8466 46.55 93.379L63.9411 80.3825C64.811 79.7324 66.0341 79.7324 66.904 80.3825L84.2951 93.379C85.3387 94.1589 86.8481 93.9847 87.6663 92.9899C88.1568 92.3935 88.3058 91.6044 88.0642 90.8824Z" fill="white"/>
</svg>
